<svg xmlns="http://www.w3.org/2000/svg" viewBox="75 82 335 87"><defs><style>.b{fill:#38d1dd}.c{fill:#1db9ef}.d{fill:#5ae5b7}</style></defs><path d="M203.81 144.49v-4a18.64 18.64 0 0 1-14 6c-8.74 0-12.86-4.79-12.86-12.53v-27.25a1 1 0 0 1 1-1h8.43a1 1 0 0 1 1 1v23.13c0 5.53 2.89 7.34 7.34 7.34a11.76 11.76 0 0 0 9.07-4.53v-25.94a1 1 0 0 1 1-1h8.43a1 1 0 0 1 1 1v37.78a1 1 0 0 1-1 1h-8.43a1 1 0 0 1-.98-1zm19.42 0v-37.78a1 1 0 0 1 1-1h8.43a1 1 0 0 1 1 1v4.42a17.36 17.36 0 0 1 11.57-6.38 1 1 0 0 1 1.12 1v8a1 1 0 0 1-1.12 1c-.53 0-1.12-.07-1.77-.07-3.46 0-8.07 2-9.8 4.53v25.28a1 1 0 0 1-1 1h-8.43a1 1 0 0 1-1-1zm29.67 0V91.54a1 1 0 0 1 1-1h8.43a1 1 0 0 1 1 1v19.26a15.34 15.34 0 0 1 12.28-6.1c10.14 0 17.65 7.91 17.65 20.94 0 13.27-7.59 20.86-17.65 20.86a15.47 15.47 0 0 1-12.28-6.1v4.09a1 1 0 0 1-1 1h-8.43a1 1 0 0 1-1-1zm19.46-7.31c6.1 0 10.14-4.62 10.14-11.54s-4-11.62-10.14-11.62a11.55 11.55 0 0 0-9 4.61v14.1a11.68 11.68 0 0 0 9 4.45zm26.3-11.62c0-11.54 8.49-20.86 20.6-20.86 11.88 0 19.95 8.9 19.95 21.93v1.29a1 1 0 0 1-1 1h-28.59c.66 5 4.7 9.23 11.46 9.23a17.65 17.65 0 0 0 9.8-3.24 1 1 0 0 1 1.47.22l3.46 5.07a1 1 0 0 1-.21 1.38c-4 3.22-9.86 4.9-15.68 4.9-12.11.02-21.26-8.15-21.26-20.92zm20.6-12.56c-6.51 0-9.31 4.86-9.81 8.82h19.62c-.24-3.76-2.88-8.82-9.81-8.82zm23.81 26.58l3.46-5.59a1 1 0 0 1 1.51-.26 23 23 0 0 0 12.88 4.69c4.53 0 6.68-1.82 6.68-4.29 0-6.59-23.66-1.24-23.66-16.9 0-6.68 5.85-12.53 16.32-12.53a25.51 25.51 0 0 1 15.36 4.89 1 1 0 0 1 .26 1.33l-3.1 5.28a1 1 0 0 1-1.52.28 17.43 17.43 0 0 0-10.92-3.78c-3.79 0-6.26 1.73-6.26 4 0 5.94 23.57 1 23.57 17.07 0 7.25-6.18 12.78-17.23 12.78-6.57 0-12.93-2.09-17.15-5.62a1 1 0 0 1-.2-1.35zm44.39-3.97v-20.77h-5.57a1 1 0 0 1-1-1v-7.11a1 1 0 0 1 1-1h5.57v-9.9a1 1 0 0 1 1-1H397a1 1 0 0 1 1 1v9.86h7.06a1 1 0 0 1 1 1v7.11a1 1 0 0 1-1 1H398v18c0 2.47 1.32 4.37 3.63 4.37a6.82 6.82 0 0 0 2.59-.51 1 1 0 0 1 1.4.65l1.68 6a1 1 0 0 1-.37 1.1c-1.64 1.19-4.29 2.11-8.18 2.11-7.33-.02-11.29-3.82-11.29-10.91z" fill="#130046"/><circle class="b" cx="95.99" cy="102.29" r="18.41"/><path class="b" d="M77.58 102v25.71a.45.45 0 0 0 .81.29c1.85-2.33 7.09-7.31 18.17-7.31"/><circle class="c" cx="95.99" cy="148.86" r="18.41"/><path class="c" d="M104.88 165l22.37-12.81a.46.46 0 0 0-.15-.85c-9-1.52-10.81-7.42-18.27-15.6"/><circle class="d" cx="136.27" cy="125.52" r="18.41"/><path class="d" d="M145.72 109.71L123.48 96.9a.46.46 0 0 0-.65.56c1.08 2.76 2.75 9.77-2.8 19.37"/></svg>